# xmcd
#
# Track frame offsets:
#	150
#	12165
#	26600
#	37937
#	63490
#	78927
#	97202
#	110855
#	124565
#	137075
#
# Disc length: 2017 seconds
#
# Revision: 1
# Processed by: cddbd v1.5PL3 Copyright (c) Steve Scherf et al.
# Submitted via: audiograbber 1.82.01
#
DISCID=8007df0a
DTITLE=Little Milton - Were gonna make it
DYEAR=1900
DGENRE=blues
TTITLE0=We're gonna make it
TTITLE1=If walls could talk
TTITLE2=So mean to me
TTITLE3=Let me down easy
TTITLE4=Blind man
TTITLE5=Feel so bad
TTITLE6=Man Loves two
TTITLE7=Let's get together
TTITLE8=You're welcome to the club
TTITLE9=blues in the night
EXTD=
EXTT0=
EXTT1=
EXTT2=
EXTT3=
EXTT4=
EXTT5=
EXTT6=
EXTT7=
EXTT8=
EXTT9=
PLAYORDER=
